<svg width="820" height="312" viewBox="0 0 820 312" fill="none" xmlns="http://www.w3.org/2000/svg">
<rect width="820" height="312" fill="#181818"/>
<g filter="url(#filter0_d_41_88)">
<path fill-rule="evenodd" clip-rule="evenodd" d="M599 116V146H549L549 176C559.442 176 568.639 170.665 574.012 162.572L599.018 179.14C593.546 187.398 586.114 194.173 577.386 198.86C568.659 203.547 558.906 206 549 206H519V146H509C509 153.879 507.448 161.681 504.433 168.961C501.417 176.241 496.998 182.855 491.426 188.426C485.855 193.998 479.241 198.417 471.961 201.433C464.681 204.448 456.879 206 449 206V176C465.569 176 479 162.569 479 146H449V176H419V146V116H599Z" fill="white" fill-opacity="0.2" shape-rendering="crispEdges"/>
</g>
<line x1="369" y1="115.75" x2="650" y2="115.75" stroke="#303030" stroke-width="0.5"/>
<line x1="369" y1="145.75" x2="650" y2="145.75" stroke="#303030" stroke-width="0.5"/>
<line x1="369" y1="175.75" x2="650" y2="175.75" stroke="#303030" stroke-width="0.5"/>
<line x1="369" y1="205.75" x2="650" y2="205.75" stroke="#303030" stroke-width="0.5"/>
<line x1="413.137" y1="56.7912" x2="647.849" y2="211.295" stroke="#303030" stroke-width="0.5"/>
<line x1="418.75" y1="286" x2="418.75" y2="26" stroke="#303030" stroke-width="0.5"/>
<line x1="448.75" y1="286" x2="448.75" y2="26" stroke="#303030" stroke-width="0.5"/>
<line x1="478.75" y1="286" x2="478.75" y2="26" stroke="#303030" stroke-width="0.5"/>
<line x1="509.75" y1="286" x2="509.75" y2="26" stroke="#303030" stroke-width="0.5"/>
<line x1="518.75" y1="286" x2="518.75" y2="26" stroke="#303030" stroke-width="0.5"/>
<line x1="548.75" y1="286" x2="548.75" y2="26" stroke="#303030" stroke-width="0.5"/>
<line x1="598.75" y1="286" x2="598.75" y2="26" stroke="#303030" stroke-width="0.5"/>
<circle cx="449.5" cy="146.5" r="59.25" stroke="#303030" stroke-width="0.5"/>
<circle cx="449" cy="146" r="29.75" stroke="#303030" stroke-width="0.5"/>
<circle cx="549.5" cy="146.5" r="59.25" stroke="#303030" stroke-width="0.5"/>
<circle cx="549" cy="146" r="29.75" stroke="#303030" stroke-width="0.5"/>
<rect width="30" height="30" transform="matrix(-1 0 0 1 200 146)" fill="white"/>
<path fill-rule="evenodd" clip-rule="evenodd" d="M200 176C216.569 176 230 162.569 230 146H260C260 153.879 258.448 161.681 255.433 168.961C252.417 176.241 247.998 182.855 242.426 188.426C236.855 193.998 230.241 198.417 222.961 201.433C215.681 204.448 207.879 206 200 206L200 176Z" fill="white"/>
<rect width="30" height="60" transform="matrix(-1 0 0 1 300 146)" fill="white"/>
<rect width="30" height="180" transform="matrix(0 -1 -1 0 350 146)" fill="white"/>
<path fill-rule="evenodd" clip-rule="evenodd" d="M325.012 162.572C319.639 170.665 310.442 176 300 176C300 176 300 176 300 176L299.999 206C309.906 206 319.658 203.547 328.386 198.86C337.114 194.173 344.546 187.398 350.018 179.14L325.012 162.572Z" fill="white"/>
<defs>
<filter id="filter0_d_41_88" x="414" y="115" width="190.018" height="100" filterUnits="userSpaceOnUse" color-interpolation-filters="sRGB">
<feFlood flood-opacity="0" result="BackgroundImageFix"/>
<feColorMatrix in="SourceAlpha" type="matrix" values="0 0 0 0 0 0 0 0 0 0 0 0 0 0 0 0 0 0 127 0" result="hardAlpha"/>
<feMorphology radius="5" operator="erode" in="SourceAlpha" result="effect1_dropShadow_41_88"/>
<feOffset dy="4"/>
<feGaussianBlur stdDeviation="5"/>
<feComposite in2="hardAlpha" operator="out"/>
<feColorMatrix type="matrix" values="0 0 0 0 0 0 0 0 0 0 0 0 0 0 0 0 0 0 0.25 0"/>
<feBlend mode="normal" in2="BackgroundImageFix" result="effect1_dropShadow_41_88"/>
<feBlend mode="normal" in="SourceGraphic" in2="effect1_dropShadow_41_88" result="shape"/>
</filter>
</defs>
</svg>
